<mxfile host="app.diagrams.net" agent="Mozilla/5.0 (Windows NT 10.0; Win64; x64) AppleWebKit/537.36 (KHTML, like Gecko) Chrome/128.0.0.0 Safari/537.36 OPR/114.0.0.0" version="24.9.3">
  <diagram id="C5RBs43oDa-KdzZeNtuy" name="randomNumber">
    <mxGraphModel dx="1441" dy="781" grid="1" gridSize="10" guides="1" tooltips="1" connect="1" arrows="1" fold="1" page="1" pageScale="1" pageWidth="827" pageHeight="1169" math="0" shadow="0">
      <root>
        <mxCell id="WIyWlLk6GJQsqaUBKTNV-0" />
        <mxCell id="WIyWlLk6GJQsqaUBKTNV-1" parent="WIyWlLk6GJQsqaUBKTNV-0" />
        <mxCell id="Mr7sROdHvGiALWQ0n46--2" style="edgeStyle=orthogonalEdgeStyle;rounded=0;orthogonalLoop=1;jettySize=auto;html=1;entryX=0.5;entryY=0;entryDx=0;entryDy=0;" edge="1" parent="WIyWlLk6GJQsqaUBKTNV-1" source="Mr7sROdHvGiALWQ0n46--0" target="Mr7sROdHvGiALWQ0n46--1">
          <mxGeometry relative="1" as="geometry" />
        </mxCell>
        <mxCell id="Mr7sROdHvGiALWQ0n46--0" value="Start" style="strokeWidth=2;html=1;shape=mxgraph.flowchart.terminator;whiteSpace=wrap;" vertex="1" parent="WIyWlLk6GJQsqaUBKTNV-1">
          <mxGeometry x="110" y="120" width="100" height="60" as="geometry" />
        </mxCell>
        <mxCell id="Mr7sROdHvGiALWQ0n46--5" style="edgeStyle=orthogonalEdgeStyle;rounded=0;orthogonalLoop=1;jettySize=auto;html=1;entryX=0.5;entryY=0;entryDx=0;entryDy=0;" edge="1" parent="WIyWlLk6GJQsqaUBKTNV-1" source="Mr7sROdHvGiALWQ0n46--1" target="Mr7sROdHvGiALWQ0n46--4">
          <mxGeometry relative="1" as="geometry" />
        </mxCell>
        <mxCell id="Mr7sROdHvGiALWQ0n46--1" value="int arr[], size, i" style="shape=hexagon;perimeter=hexagonPerimeter2;whiteSpace=wrap;html=1;fixedSize=1;" vertex="1" parent="WIyWlLk6GJQsqaUBKTNV-1">
          <mxGeometry x="100" y="210" width="120" height="80" as="geometry" />
        </mxCell>
        <mxCell id="Mr7sROdHvGiALWQ0n46--7" style="edgeStyle=orthogonalEdgeStyle;rounded=0;orthogonalLoop=1;jettySize=auto;html=1;entryX=0.5;entryY=0;entryDx=0;entryDy=0;" edge="1" parent="WIyWlLk6GJQsqaUBKTNV-1" source="Mr7sROdHvGiALWQ0n46--4" target="Mr7sROdHvGiALWQ0n46--6">
          <mxGeometry relative="1" as="geometry" />
        </mxCell>
        <mxCell id="Mr7sROdHvGiALWQ0n46--4" value="i = 0" style="rounded=0;whiteSpace=wrap;html=1;" vertex="1" parent="WIyWlLk6GJQsqaUBKTNV-1">
          <mxGeometry x="100" y="320" width="120" height="60" as="geometry" />
        </mxCell>
        <mxCell id="Mr7sROdHvGiALWQ0n46--9" style="edgeStyle=orthogonalEdgeStyle;rounded=0;orthogonalLoop=1;jettySize=auto;html=1;entryX=0.5;entryY=0;entryDx=0;entryDy=0;" edge="1" parent="WIyWlLk6GJQsqaUBKTNV-1" source="Mr7sROdHvGiALWQ0n46--6" target="Mr7sROdHvGiALWQ0n46--8">
          <mxGeometry relative="1" as="geometry" />
        </mxCell>
        <mxCell id="Mr7sROdHvGiALWQ0n46--10" value="True" style="edgeLabel;html=1;align=center;verticalAlign=middle;resizable=0;points=[];" vertex="1" connectable="0" parent="Mr7sROdHvGiALWQ0n46--9">
          <mxGeometry x="-0.36" y="-1" relative="1" as="geometry">
            <mxPoint as="offset" />
          </mxGeometry>
        </mxCell>
        <mxCell id="Mr7sROdHvGiALWQ0n46--6" value="i &amp;lt; size" style="rhombus;whiteSpace=wrap;html=1;" vertex="1" parent="WIyWlLk6GJQsqaUBKTNV-1">
          <mxGeometry x="110" y="410" width="100" height="100" as="geometry" />
        </mxCell>
        <mxCell id="Mr7sROdHvGiALWQ0n46--12" style="edgeStyle=orthogonalEdgeStyle;rounded=0;orthogonalLoop=1;jettySize=auto;html=1;entryX=0.5;entryY=0;entryDx=0;entryDy=0;" edge="1" parent="WIyWlLk6GJQsqaUBKTNV-1" source="Mr7sROdHvGiALWQ0n46--8" target="Mr7sROdHvGiALWQ0n46--11">
          <mxGeometry relative="1" as="geometry" />
        </mxCell>
        <mxCell id="Mr7sROdHvGiALWQ0n46--8" value="i++" style="rounded=0;whiteSpace=wrap;html=1;" vertex="1" parent="WIyWlLk6GJQsqaUBKTNV-1">
          <mxGeometry x="100" y="560" width="120" height="60" as="geometry" />
        </mxCell>
        <mxCell id="Mr7sROdHvGiALWQ0n46--13" style="edgeStyle=orthogonalEdgeStyle;rounded=0;orthogonalLoop=1;jettySize=auto;html=1;entryX=0;entryY=0.5;entryDx=0;entryDy=0;" edge="1" parent="WIyWlLk6GJQsqaUBKTNV-1" source="Mr7sROdHvGiALWQ0n46--11" target="Mr7sROdHvGiALWQ0n46--6">
          <mxGeometry relative="1" as="geometry">
            <Array as="points">
              <mxPoint x="70" y="680" />
              <mxPoint x="70" y="460" />
            </Array>
          </mxGeometry>
        </mxCell>
        <mxCell id="Mr7sROdHvGiALWQ0n46--11" value="arr[i] = rand() % 100000" style="rounded=0;whiteSpace=wrap;html=1;" vertex="1" parent="WIyWlLk6GJQsqaUBKTNV-1">
          <mxGeometry x="100" y="650" width="120" height="60" as="geometry" />
        </mxCell>
        <mxCell id="Mr7sROdHvGiALWQ0n46--14" value="Start" style="strokeWidth=2;html=1;shape=mxgraph.flowchart.terminator;whiteSpace=wrap;" vertex="1" parent="WIyWlLk6GJQsqaUBKTNV-1">
          <mxGeometry x="110" y="740" width="100" height="60" as="geometry" />
        </mxCell>
        <mxCell id="Mr7sROdHvGiALWQ0n46--15" style="edgeStyle=orthogonalEdgeStyle;rounded=0;orthogonalLoop=1;jettySize=auto;html=1;entryX=1;entryY=0.5;entryDx=0;entryDy=0;entryPerimeter=0;" edge="1" parent="WIyWlLk6GJQsqaUBKTNV-1" source="Mr7sROdHvGiALWQ0n46--6" target="Mr7sROdHvGiALWQ0n46--14">
          <mxGeometry relative="1" as="geometry">
            <Array as="points">
              <mxPoint x="250" y="460" />
              <mxPoint x="250" y="770" />
            </Array>
          </mxGeometry>
        </mxCell>
        <mxCell id="Mr7sROdHvGiALWQ0n46--16" value="False" style="edgeLabel;html=1;align=center;verticalAlign=middle;resizable=0;points=[];" vertex="1" connectable="0" parent="Mr7sROdHvGiALWQ0n46--15">
          <mxGeometry x="-0.9097" y="-1" relative="1" as="geometry">
            <mxPoint as="offset" />
          </mxGeometry>
        </mxCell>
      </root>
    </mxGraphModel>
  </diagram>
</mxfile>
